<svg xmlns="http://www.w3.org/2000/svg" xmlns:xlink="http://www.w3.org/1999/xlink" width="500" zoomAndPan="magnify" viewBox="0 0 375 374.999991" height="500" preserveAspectRatio="xMidYMid meet" version="1.0"><defs><g/><clipPath id="b93c8bd3dd"><path d="M 71.722656 91.132812 L 280.972656 91.132812 L 280.972656 262.882812 L 71.722656 262.882812 Z M 71.722656 91.132812 " clip-rule="nonzero"/></clipPath><clipPath id="a5f20b9b6f"><path d="M 154.683594 111 L 165 111 L 165 139 L 154.683594 139 Z M 154.683594 111 " clip-rule="nonzero"/></clipPath><clipPath id="59066db0c5"><path d="M 168 97.382812 L 218 97.382812 L 218 122 L 168 122 Z M 168 97.382812 " clip-rule="nonzero"/></clipPath><clipPath id="d8a10134ae"><path d="M 174.5 135.921875 L 189.414062 135.921875 L 189.414062 176.882812 L 174.5 176.882812 Z M 174.5 135.921875 " clip-rule="nonzero"/></clipPath><clipPath id="064cc3cb91"><path d="M 178 126 L 198 126 L 198 176.882812 L 178 176.882812 Z M 178 126 " clip-rule="nonzero"/></clipPath><clipPath id="813ef9874e"><path d="M 170 116 L 216 116 L 216 176.882812 L 170 176.882812 Z M 170 116 " clip-rule="nonzero"/></clipPath><clipPath id="0492ab560d"><path d="M 216.335938 123.25 L 220.683594 123.25 L 220.683594 138.429688 L 216.335938 138.429688 Z M 216.335938 123.25 " clip-rule="nonzero"/></clipPath></defs><g clip-path="url(#b93c8bd3dd)"><path fill="#ffffff" d="M 193.144531 91.132812 C 171.445312 91.132812 153.875 103.269531 145.144531 121.527344 C 140.347656 118.363281 134.886719 116.261719 128.851562 116.261719 C 113.351562 116.261719 102.21875 128.738281 101.320312 143.75 C 94.050781 146.195312 87.027344 149.972656 81.664062 156.101562 C 75.597656 163.039062 71.726562 172.613281 71.726562 184.648438 C 71.726562 206.964844 89.90625 225.144531 112.222656 225.144531 L 130.355469 225.144531 L 130.355469 216.769531 L 112.222656 216.769531 C 94.429688 216.769531 80.101562 202.4375 80.101562 184.648438 C 80.101562 174.359375 83.21875 167.050781 87.972656 161.617188 C 92.726562 156.179688 99.285156 152.613281 106.34375 150.664062 L 109.53125 149.78125 L 109.417969 146.476562 C 109.398438 145.890625 109.359375 145.601562 109.359375 145.574219 C 109.359375 133.644531 117.207031 124.636719 128.851562 124.636719 C 134.851562 124.636719 139.988281 126.636719 143.691406 130.347656 L 148.3125 134.976562 L 150.585938 128.839844 C 157.203125 110.953125 172.859375 99.507812 193.144531 99.507812 C 219.046875 99.507812 239.242188 119.679688 239.242188 145.574219 C 239.242188 147.480469 239.082031 149.398438 238.839844 151.359375 L 238.261719 156.0625 L 242.996094 156.0625 C 243.5 156.0625 243.578125 156.054688 243.242188 156.054688 C 258.8125 156.054688 272.746094 171.949219 272.746094 187.871094 C 272.746094 203.886719 259.855469 216.769531 243.839844 216.769531 L 222.492188 216.769531 L 222.492188 225.144531 L 243.839844 225.144531 C 264.382812 225.144531 281.121094 208.410156 281.121094 187.871094 C 281.121094 168.695312 266.320312 151.113281 247.40625 148.636719 C 247.472656 147.613281 247.617188 146.636719 247.617188 145.574219 C 247.617188 115.273438 223.449219 91.132812 193.144531 91.132812 Z M 176.425781 170.703125 C 162.605469 170.703125 151.296875 182.425781 151.296875 196.664062 L 151.296875 204.207031 L 146.691406 204.207031 C 142.085938 204.207031 138.734375 207.976562 138.734375 212.164062 L 138.734375 254.460938 C 138.734375 259.066406 142.085938 262.835938 146.691406 262.835938 L 206.15625 262.835938 C 210.34375 262.835938 214.113281 259.066406 214.113281 254.878906 L 214.113281 212.164062 C 214.113281 207.976562 210.761719 204.207031 206.15625 204.207031 L 201.550781 204.207031 L 201.550781 196.664062 C 201.550781 182.425781 190.242188 170.703125 176.425781 170.703125 Z M 176.425781 179.078125 C 185.636719 179.078125 193.175781 187.03125 193.175781 196.664062 L 193.175781 204.207031 L 159.671875 204.207031 L 159.671875 196.664062 C 159.671875 187.03125 167.210938 179.078125 176.425781 179.078125 Z M 147.109375 212.582031 L 205.738281 212.582031 L 205.738281 254.460938 L 147.109375 254.460938 Z M 176.425781 225.144531 C 173.074219 225.144531 170.558594 227.660156 170.558594 231.011719 C 170.558594 232.683594 171.398438 233.941406 172.652344 235.199219 L 172.652344 240.636719 C 172.652344 242.730469 174.328125 244.410156 176.425781 244.410156 C 178.519531 244.410156 180.195312 242.730469 180.195312 240.636719 L 180.195312 235.199219 C 181.449219 233.941406 182.289062 232.683594 182.289062 231.011719 C 182.289062 227.660156 179.773438 225.144531 176.425781 225.144531 Z M 176.425781 225.144531 " fill-opacity="1" fill-rule="nonzero"/></g><path fill="#5e17eb" d="M 162.179688 149.628906 C 161.628906 145.550781 161.347656 141.371094 161.347656 137.207031 C 161.347656 137.199219 161.347656 137.1875 161.347656 137.183594 C 161.347656 137.175781 161.347656 137.160156 161.347656 137.15625 C 161.351562 133.136719 161.945312 129.210938 163.113281 125.492188 C 164.234375 121.914062 165.855469 118.628906 167.929688 115.730469 C 168.8125 114.496094 169.777344 113.335938 170.800781 112.277344 C 171.820312 111.222656 172.917969 110.253906 174.054688 109.402344 C 174.933594 108.738281 175.855469 108.136719 176.792969 107.609375 C 177.734375 107.078125 178.710938 106.609375 179.695312 106.21875 C 179.695312 106.21875 179.699219 106.21875 179.699219 106.21875 C 180.53125 105.890625 181.386719 105.609375 182.238281 105.386719 C 183.101562 105.160156 183.988281 104.984375 184.871094 104.863281 C 185.34375 104.800781 185.828125 104.753906 186.304688 104.71875 C 187.097656 104.667969 187.902344 104.65625 188.695312 104.691406 C 189.003906 104.703125 189.316406 104.726562 189.621094 104.75 C 190.355469 104.8125 191.097656 104.914062 191.820312 105.054688 C 192.539062 105.191406 193.257812 105.363281 193.964844 105.574219 C 194.664062 105.78125 195.363281 106.027344 196.046875 106.308594 C 196.722656 106.582031 197.398438 106.898438 198.058594 107.242188 C 198.640625 107.546875 199.226562 107.882812 199.792969 108.242188 C 200.355469 108.597656 200.914062 108.984375 201.457031 109.390625 C 202.007812 109.800781 202.550781 110.242188 203.074219 110.703125 C 203.597656 111.164062 204.117188 111.652344 204.609375 112.160156 C 205.097656 112.65625 205.574219 113.179688 206.03125 113.71875 C 206.488281 114.257812 206.933594 114.824219 207.359375 115.398438 C 207.359375 115.402344 207.359375 115.402344 207.359375 115.402344 C 207.78125 115.976562 208.191406 116.574219 208.578125 117.1875 C 208.96875 117.800781 209.34375 118.4375 209.695312 119.078125 C 209.695312 119.078125 209.695312 119.078125 209.695312 119.082031 C 210.054688 119.738281 210.398438 120.417969 210.714844 121.101562 C 211.035156 121.789062 211.339844 122.503906 211.617188 123.21875 C 211.917969 123.988281 212.191406 124.78125 212.441406 125.574219 C 212.691406 126.378906 212.917969 127.203125 213.113281 128.027344 C 213.25 128.601562 213.804688 128.996094 214.417969 128.996094 C 214.515625 128.996094 214.613281 128.984375 214.707031 128.964844 C 215.429688 128.820312 215.886719 128.164062 215.726562 127.496094 C 215.519531 126.621094 215.28125 125.746094 215.015625 124.894531 C 214.75 124.050781 214.457031 123.207031 214.140625 122.390625 C 214.140625 122.390625 214.140625 122.386719 214.140625 122.386719 C 213.84375 121.625 213.519531 120.867188 213.179688 120.132812 C 212.839844 119.398438 212.472656 118.675781 212.089844 117.972656 C 212.089844 117.972656 212.089844 117.96875 212.089844 117.96875 C 211.710938 117.28125 211.308594 116.597656 210.890625 115.941406 C 210.472656 115.285156 210.03125 114.636719 209.578125 114.019531 C 209.574219 114.019531 209.574219 114.019531 209.574219 114.019531 C 209.117188 113.394531 208.636719 112.785156 208.140625 112.203125 C 207.648438 111.617188 207.128906 111.046875 206.597656 110.507812 C 206.058594 109.957031 205.496094 109.421875 204.925781 108.921875 C 204.347656 108.414062 203.75 107.929688 203.148438 107.476562 C 202.550781 107.03125 201.929688 106.601562 201.308594 106.207031 C 200.679688 105.8125 200.03125 105.4375 199.382812 105.097656 C 198.644531 104.710938 197.886719 104.359375 197.128906 104.050781 C 196.363281 103.738281 195.574219 103.460938 194.789062 103.226562 C 194.785156 103.226562 194.785156 103.226562 194.785156 103.226562 C 193.988281 102.992188 193.171875 102.792969 192.363281 102.640625 C 191.542969 102.484375 190.703125 102.367188 189.871094 102.296875 C 189.523438 102.265625 189.171875 102.242188 188.820312 102.226562 C 187.921875 102.1875 187.007812 102.199219 186.109375 102.261719 C 185.566406 102.296875 185.019531 102.351562 184.484375 102.425781 C 183.484375 102.558594 182.480469 102.757812 181.503906 103.015625 C 180.542969 103.265625 179.578125 103.582031 178.640625 103.953125 C 177.535156 104.390625 176.445312 104.914062 175.394531 105.507812 C 174.355469 106.089844 173.335938 106.757812 172.363281 107.488281 C 171.117188 108.425781 169.917969 109.484375 168.800781 110.636719 C 167.691406 111.785156 166.644531 113.039062 165.691406 114.371094 C 163.472656 117.476562 161.738281 120.988281 160.539062 124.808594 C 159.300781 128.746094 158.675781 132.894531 158.671875 137.144531 C 158.671875 137.152344 158.671875 137.160156 158.671875 137.167969 L 158.671875 137.195312 C 158.671875 137.199219 158.671875 137.210938 158.671875 137.214844 C 158.671875 137.214844 158.671875 137.21875 158.671875 137.21875 C 158.671875 141.480469 158.957031 145.757812 159.523438 149.933594 C 160.074219 154.023438 160.90625 158.085938 161.984375 162.007812 C 162.140625 162.566406 162.683594 162.9375 163.28125 162.9375 C 163.390625 162.9375 163.503906 162.925781 163.613281 162.898438 C 164.328125 162.730469 164.761719 162.0625 164.582031 161.402344 C 163.527344 157.578125 162.71875 153.617188 162.179688 149.628906 " fill-opacity="1" fill-rule="nonzero"/><g clip-path="url(#a5f20b9b6f)"><path fill="#5e17eb" d="M 164.417969 113.308594 C 164.8125 112.730469 164.621094 111.972656 163.992188 111.609375 C 163.367188 111.25 162.539062 111.425781 162.148438 112.003906 C 159.785156 115.484375 157.945312 119.382812 156.675781 123.59375 C 155.367188 127.941406 154.707031 132.511719 154.707031 137.179688 C 154.707031 137.859375 155.304688 138.414062 156.042969 138.414062 C 156.785156 138.414062 157.382812 137.859375 157.382812 137.179688 C 157.382812 132.734375 158.015625 128.386719 159.257812 124.253906 C 160.457031 120.269531 162.195312 116.589844 164.417969 113.308594 " fill-opacity="1" fill-rule="nonzero"/></g><g clip-path="url(#59066db0c5)"><path fill="#5e17eb" d="M 170.121094 106.359375 C 170.4375 106.359375 170.753906 106.257812 171.011719 106.050781 C 171.960938 105.273438 172.957031 104.558594 173.972656 103.921875 C 174.992188 103.28125 176.054688 102.703125 177.125 102.210938 C 178.03125 101.792969 178.964844 101.425781 179.894531 101.117188 C 180.835938 100.808594 181.804688 100.550781 182.765625 100.355469 C 183.582031 100.1875 184.410156 100.0625 185.238281 99.976562 C 186.070312 99.894531 186.921875 99.851562 187.761719 99.851562 L 187.972656 99.851562 C 188.777344 99.859375 189.59375 99.90625 190.394531 99.988281 C 191.1875 100.074219 191.984375 100.195312 192.765625 100.355469 C 193.507812 100.507812 194.253906 100.695312 194.984375 100.914062 C 195.710938 101.132812 196.4375 101.386719 197.148438 101.671875 C 197.855469 101.953125 198.5625 102.273438 199.25 102.621094 C 199.933594 102.964844 200.617188 103.34375 201.277344 103.75 C 201.28125 103.75 201.28125 103.75 201.28125 103.753906 C 201.867188 104.113281 202.457031 104.503906 203.027344 104.914062 C 203.597656 105.320312 204.164062 105.757812 204.707031 106.207031 C 204.710938 106.210938 204.710938 106.210938 204.710938 106.210938 C 205.261719 106.667969 205.808594 107.152344 206.335938 107.65625 C 206.863281 108.15625 207.382812 108.6875 207.882812 109.230469 C 208.371094 109.761719 208.851562 110.320312 209.3125 110.886719 C 209.769531 111.453125 210.222656 112.046875 210.648438 112.652344 C 211.070312 113.246094 211.480469 113.859375 211.871094 114.484375 C 212.261719 115.109375 212.640625 115.757812 213 116.410156 C 213 116.414062 213 116.414062 213 116.414062 C 213.351562 117.058594 213.695312 117.730469 214.015625 118.402344 C 214.335938 119.078125 214.644531 119.773438 214.929688 120.46875 C 215.132812 120.964844 215.640625 121.269531 216.183594 121.269531 C 216.339844 121.269531 216.5 121.242188 216.652344 121.191406 C 217.347656 120.949219 217.695312 120.238281 217.4375 119.601562 C 217.132812 118.863281 216.808594 118.128906 216.46875 117.410156 C 216.128906 116.699219 215.765625 115.988281 215.390625 115.304688 C 215.390625 115.304688 215.390625 115.304688 215.390625 115.300781 C 215.011719 114.605469 214.609375 113.917969 214.191406 113.253906 C 213.777344 112.589844 213.339844 111.933594 212.890625 111.300781 C 212.433594 110.65625 211.949219 110.023438 211.457031 109.414062 C 210.96875 108.804688 210.453125 108.207031 209.929688 107.636719 C 209.390625 107.050781 208.828125 106.480469 208.261719 105.941406 C 207.691406 105.398438 207.097656 104.871094 206.503906 104.378906 C 206.5 104.378906 206.5 104.375 206.5 104.375 C 205.910156 103.886719 205.292969 103.410156 204.675781 102.96875 C 204.050781 102.519531 203.40625 102.09375 202.765625 101.699219 C 202.761719 101.699219 202.761719 101.699219 202.761719 101.699219 C 202.035156 101.253906 201.285156 100.835938 200.535156 100.457031 C 199.777344 100.074219 198.996094 99.722656 198.214844 99.410156 C 197.429688 99.09375 196.621094 98.8125 195.816406 98.570312 C 195.003906 98.328125 194.171875 98.117188 193.347656 97.949219 C 193.34375 97.949219 193.34375 97.949219 193.34375 97.949219 C 192.472656 97.769531 191.585938 97.632812 190.699219 97.539062 C 189.804688 97.445312 188.894531 97.394531 187.996094 97.386719 L 187.890625 97.386719 C 187.847656 97.382812 187.804688 97.382812 187.761719 97.382812 C 186.824219 97.382812 185.875 97.433594 184.941406 97.527344 C 184.023438 97.621094 183.09375 97.761719 182.1875 97.945312 C 182.1875 97.945312 182.1875 97.945312 182.1875 97.949219 C 181.113281 98.167969 180.039062 98.453125 178.992188 98.796875 C 177.960938 99.136719 176.929688 99.542969 175.929688 100.003906 C 175.929688 100.003906 175.929688 100.003906 175.925781 100.003906 C 174.746094 100.546875 173.582031 101.179688 172.464844 101.882812 C 171.355469 102.578125 170.269531 103.359375 169.234375 104.203125 C 168.679688 104.65625 168.628906 105.433594 169.121094 105.945312 C 169.382812 106.21875 169.753906 106.359375 170.121094 106.359375 " fill-opacity="1" fill-rule="nonzero"/></g><path fill="#5e17eb" d="M 176.011719 169.179688 C 175.46875 167.980469 174.949219 166.742188 174.46875 165.5 C 174.21875 164.859375 173.453125 164.523438 172.757812 164.753906 C 172.0625 164.984375 171.699219 165.6875 171.945312 166.328125 C 172.445312 167.609375 172.980469 168.886719 173.539062 170.128906 C 174.097656 171.363281 174.695312 172.59375 175.320312 173.785156 C 175.550781 174.226562 176.027344 174.484375 176.527344 174.484375 C 176.722656 174.484375 176.917969 174.445312 177.105469 174.363281 C 177.773438 174.070312 178.054688 173.332031 177.734375 172.71875 C 177.132812 171.566406 176.554688 170.375 176.011719 169.179688 " fill-opacity="1" fill-rule="nonzero"/><path fill="#5e17eb" d="M 169.601562 164 C 169.054688 162.371094 168.554688 160.695312 168.113281 159.019531 C 167.9375 158.355469 167.214844 157.953125 166.496094 158.113281 C 165.777344 158.273438 165.335938 158.941406 165.511719 159.601562 C 165.964844 161.324219 166.480469 163.046875 167.039062 164.726562 C 167.597656 166.390625 168.210938 168.054688 168.867188 169.664062 C 169.070312 170.160156 169.582031 170.464844 170.121094 170.464844 C 170.277344 170.464844 170.4375 170.441406 170.59375 170.386719 C 171.285156 170.148438 171.636719 169.4375 171.375 168.800781 C 170.738281 167.234375 170.140625 165.617188 169.601562 164 " fill-opacity="1" fill-rule="nonzero"/><path fill="#5e17eb" d="M 172.929688 161.125 C 172.457031 159.640625 172.023438 158.117188 171.644531 156.59375 C 170.871094 153.511719 170.28125 150.328125 169.886719 147.132812 C 169.484375 143.871094 169.277344 140.53125 169.277344 137.207031 C 169.277344 137.199219 169.277344 137.1875 169.277344 137.183594 C 169.277344 137.175781 169.277344 137.164062 169.277344 137.15625 C 169.28125 134 169.796875 130.941406 170.808594 128.070312 C 171.78125 125.3125 173.167969 122.847656 174.925781 120.742188 C 175.679688 119.84375 176.496094 119.019531 177.359375 118.292969 C 178.21875 117.5625 179.136719 116.921875 180.082031 116.382812 C 180.816406 115.964844 181.578125 115.605469 182.351562 115.3125 C 183.132812 115.015625 183.933594 114.78125 184.742188 114.617188 C 185.234375 114.515625 185.734375 114.441406 186.234375 114.390625 C 186.9375 114.316406 187.644531 114.296875 188.367188 114.324219 C 188.5625 114.332031 188.765625 114.34375 188.960938 114.359375 C 189.640625 114.414062 190.320312 114.515625 190.984375 114.660156 C 191.640625 114.800781 192.296875 114.992188 192.9375 115.222656 C 193.507812 115.429688 194.074219 115.671875 194.628906 115.949219 C 195.175781 116.222656 195.722656 116.53125 196.246094 116.871094 C 196.246094 116.871094 196.25 116.871094 196.25 116.871094 C 196.792969 117.21875 197.328125 117.605469 197.839844 118.019531 C 198.351562 118.4375 198.855469 118.886719 199.332031 119.363281 C 199.824219 119.851562 200.300781 120.378906 200.75 120.929688 C 201.203125 121.480469 201.632812 122.066406 202.039062 122.671875 C 202.488281 123.347656 202.910156 124.058594 203.292969 124.789062 C 203.679688 125.527344 204.035156 126.300781 204.347656 127.089844 C 204.960938 128.625 205.433594 130.246094 205.753906 131.90625 C 206.078125 133.617188 206.246094 135.382812 206.246094 137.160156 C 206.246094 137.167969 206.246094 137.175781 206.246094 137.179688 C 206.246094 137.1875 206.246094 137.195312 206.246094 137.199219 C 206.25 137.234375 206.25 137.269531 206.253906 137.304688 C 206.253906 137.3125 206.253906 137.316406 206.253906 137.324219 C 206.257812 137.359375 206.265625 137.390625 206.273438 137.417969 C 206.273438 137.429688 206.273438 137.4375 206.277344 137.445312 C 206.285156 137.476562 206.292969 137.507812 206.300781 137.535156 C 206.304688 137.542969 206.308594 137.554688 206.308594 137.566406 C 206.320312 137.59375 206.332031 137.625 206.347656 137.65625 C 206.347656 137.664062 206.351562 137.667969 206.355469 137.675781 C 206.558594 138.117188 207.035156 138.421875 207.585938 138.421875 C 208.234375 138.421875 208.773438 137.996094 208.898438 137.433594 C 208.917969 137.355469 208.925781 137.273438 208.925781 137.1875 C 208.925781 137.183594 208.925781 137.179688 208.925781 137.175781 C 208.925781 137.171875 208.925781 137.171875 208.925781 137.167969 C 208.925781 135.246094 208.746094 133.332031 208.390625 131.480469 C 208.042969 129.671875 207.53125 127.910156 206.863281 126.238281 C 206.515625 125.375 206.128906 124.527344 205.703125 123.71875 C 205.28125 122.914062 204.816406 122.128906 204.320312 121.382812 C 204.320312 121.382812 204.320312 121.382812 204.320312 121.378906 C 203.871094 120.710938 203.390625 120.058594 202.890625 119.445312 C 202.386719 118.832031 201.851562 118.238281 201.300781 117.691406 C 201.300781 117.691406 201.300781 117.6875 201.300781 117.6875 C 200.757812 117.152344 200.191406 116.640625 199.605469 116.167969 C 199.019531 115.691406 198.40625 115.25 197.78125 114.847656 C 197.171875 114.457031 196.539062 114.097656 195.898438 113.777344 C 195.253906 113.457031 194.585938 113.171875 193.917969 112.929688 C 193.914062 112.929688 193.914062 112.929688 193.914062 112.929688 C 193.15625 112.65625 192.378906 112.429688 191.601562 112.261719 C 190.8125 112.085938 190.003906 111.96875 189.199219 111.902344 C 189.195312 111.902344 189.195312 111.902344 189.191406 111.902344 C 188.957031 111.882812 188.71875 111.871094 188.480469 111.859375 C 187.625 111.824219 186.777344 111.851562 185.941406 111.9375 C 185.347656 112 184.746094 112.089844 184.160156 112.210938 C 183.203125 112.40625 182.25 112.683594 181.328125 113.03125 C 180.425781 113.375 179.53125 113.796875 178.675781 114.285156 C 177.585938 114.90625 176.53125 115.640625 175.546875 116.476562 C 174.574219 117.300781 173.652344 118.230469 172.804688 119.238281 C 170.859375 121.566406 169.328125 124.28125 168.261719 127.308594 C 167.164062 130.421875 166.605469 133.730469 166.601562 137.140625 C 166.601562 137.148438 166.601562 137.160156 166.601562 137.167969 L 166.601562 137.195312 C 166.601562 137.199219 166.601562 137.210938 166.601562 137.214844 C 166.601562 137.214844 166.601562 137.21875 166.601562 137.21875 C 166.601562 140.628906 166.8125 144.058594 167.226562 147.410156 C 167.628906 150.695312 168.238281 153.972656 169.035156 157.148438 C 169.425781 158.71875 169.871094 160.289062 170.359375 161.816406 C 170.527344 162.355469 171.0625 162.703125 171.644531 162.703125 C 171.765625 162.703125 171.894531 162.6875 172.019531 162.65625 C 172.730469 162.464844 173.136719 161.78125 172.929688 161.125 " fill-opacity="1" fill-rule="nonzero"/><path fill="#5e17eb" d="M 166.03125 148.378906 C 165.554688 144.699219 165.3125 140.933594 165.3125 137.179688 C 165.3125 133.582031 165.867188 130.082031 166.957031 126.777344 C 168.003906 123.597656 169.511719 120.710938 171.433594 118.199219 C 172.25 117.128906 173.144531 116.132812 174.085938 115.238281 C 175.03125 114.34375 176.039062 113.53125 177.082031 112.832031 C 177.890625 112.289062 178.734375 111.804688 179.589844 111.390625 C 180.453125 110.972656 181.34375 110.621094 182.242188 110.339844 C 183 110.101562 183.777344 109.910156 184.550781 109.773438 C 185.339844 109.632812 186.144531 109.546875 186.941406 109.507812 C 187.078125 109.503906 187.214844 109.5 187.351562 109.496094 C 188.070312 109.480469 188.796875 109.507812 189.515625 109.574219 C 190.089844 109.628906 190.667969 109.714844 191.234375 109.820312 C 191.921875 109.953125 192.613281 110.128906 193.289062 110.339844 C 193.957031 110.550781 194.625 110.800781 195.277344 111.085938 C 195.855469 111.339844 196.433594 111.628906 196.992188 111.941406 C 197.550781 112.253906 198.105469 112.597656 198.640625 112.964844 C 199.183594 113.339844 199.726562 113.746094 200.246094 114.179688 C 200.761719 114.605469 201.273438 115.070312 201.761719 115.550781 C 202.25 116.03125 202.726562 116.542969 203.179688 117.070312 C 203.632812 117.601562 204.074219 118.160156 204.492188 118.734375 C 204.75 119.089844 205.171875 119.28125 205.605469 119.28125 C 205.863281 119.28125 206.121094 119.214844 206.347656 119.074219 C 206.964844 118.695312 207.128906 117.929688 206.71875 117.363281 C 206.261719 116.738281 205.777344 116.125 205.28125 115.542969 C 204.78125 114.960938 204.257812 114.398438 203.71875 113.871094 C 203.179688 113.335938 202.613281 112.820312 202.035156 112.34375 C 201.457031 111.863281 200.851562 111.40625 200.238281 110.988281 C 199.636719 110.574219 199.011719 110.1875 198.382812 109.835938 C 197.746094 109.476562 197.089844 109.152344 196.429688 108.863281 C 196.429688 108.863281 196.429688 108.863281 196.425781 108.859375 C 195.683594 108.535156 194.917969 108.246094 194.152344 108.007812 C 193.375 107.761719 192.578125 107.5625 191.78125 107.40625 C 191.125 107.28125 190.457031 107.1875 189.792969 107.121094 C 188.960938 107.042969 188.117188 107.011719 187.285156 107.03125 C 187.128906 107.035156 186.96875 107.039062 186.8125 107.046875 C 186.8125 107.046875 186.8125 107.046875 186.808594 107.046875 C 185.886719 107.089844 184.957031 107.191406 184.046875 107.351562 C 183.148438 107.511719 182.253906 107.730469 181.378906 108.003906 C 180.347656 108.328125 179.328125 108.730469 178.34375 109.207031 C 177.375 109.679688 176.417969 110.226562 175.507812 110.839844 C 175.507812 110.839844 175.503906 110.839844 175.503906 110.839844 C 174.339844 111.621094 173.214844 112.523438 172.164062 113.523438 C 171.125 114.511719 170.140625 115.605469 169.242188 116.777344 C 167.15625 119.507812 165.527344 122.628906 164.394531 126.058594 C 163.226562 129.597656 162.636719 133.339844 162.636719 137.179688 C 162.636719 141.03125 162.882812 144.898438 163.371094 148.671875 C 163.453125 149.296875 164.03125 149.757812 164.699219 149.757812 C 164.753906 149.757812 164.804688 149.753906 164.859375 149.75 C 165.59375 149.667969 166.117188 149.054688 166.03125 148.378906 " fill-opacity="1" fill-rule="nonzero"/><g clip-path="url(#d8a10134ae)"><path fill="#5e17eb" d="M 187.417969 172.648438 C 186.878906 171.828125 186.355469 170.984375 185.855469 170.132812 C 185.855469 170.132812 185.855469 170.128906 185.855469 170.128906 C 185.347656 169.265625 184.855469 168.371094 184.386719 167.472656 C 183.921875 166.574219 183.46875 165.644531 183.042969 164.710938 C 182.597656 163.738281 182.175781 162.738281 181.78125 161.738281 C 181.382812 160.730469 181.003906 159.695312 180.660156 158.664062 C 180.273438 157.511719 179.914062 156.332031 179.589844 155.152344 C 179.265625 153.960938 178.96875 152.746094 178.710938 151.535156 C 178.21875 149.230469 177.839844 146.863281 177.589844 144.5 C 177.335938 142.089844 177.207031 139.625 177.207031 137.179688 C 177.207031 136.5 176.609375 135.945312 175.867188 135.945312 C 175.128906 135.945312 174.527344 136.5 174.527344 137.179688 C 174.527344 139.707031 174.664062 142.25 174.925781 144.738281 C 175.183594 147.183594 175.574219 149.628906 176.082031 152.011719 C 176.351562 153.261719 176.65625 154.523438 176.992188 155.753906 C 177.328125 156.972656 177.699219 158.195312 178.097656 159.386719 C 178.097656 159.390625 178.097656 159.390625 178.101562 159.390625 C 178.460938 160.460938 178.851562 161.535156 179.261719 162.578125 C 179.671875 163.617188 180.113281 164.65625 180.574219 165.664062 C 180.574219 165.664062 180.574219 165.664062 180.574219 165.667969 C 181.015625 166.632812 181.484375 167.597656 181.972656 168.535156 C 182.457031 169.472656 182.972656 170.402344 183.496094 171.300781 C 183.496094 171.300781 183.5 171.300781 183.5 171.304688 C 184.019531 172.191406 184.566406 173.070312 185.128906 173.925781 C 185.6875 174.777344 186.277344 175.621094 186.875 176.433594 C 187.132812 176.785156 187.554688 176.972656 187.984375 176.972656 C 188.242188 176.972656 188.503906 176.90625 188.734375 176.761719 C 189.347656 176.378906 189.507812 175.613281 189.089844 175.050781 C 188.519531 174.273438 187.957031 173.464844 187.417969 172.648438 " fill-opacity="1" fill-rule="nonzero"/></g><path fill="#5e17eb" d="M 197.035156 171.183594 C 196.5 170.558594 195.976562 169.910156 195.472656 169.25 C 194.976562 168.601562 194.492188 167.929688 194.027344 167.246094 C 193.5625 166.566406 193.109375 165.859375 192.675781 165.144531 C 192.316406 164.550781 191.5 164.335938 190.855469 164.667969 C 190.207031 165 189.976562 165.75 190.335938 166.347656 C 190.792969 167.09375 191.269531 167.839844 191.757812 168.558594 C 192.246094 169.273438 192.757812 169.984375 193.28125 170.667969 C 193.8125 171.363281 194.367188 172.050781 194.933594 172.710938 C 195.496094 173.367188 196.082031 174.015625 196.679688 174.636719 C 196.945312 174.910156 197.3125 175.050781 197.683594 175.050781 C 197.996094 175.050781 198.316406 174.949219 198.570312 174.742188 C 199.125 174.292969 199.175781 173.511719 198.683594 173.003906 C 198.121094 172.417969 197.566406 171.804688 197.035156 171.183594 " fill-opacity="1" fill-rule="nonzero"/><g clip-path="url(#064cc3cb91)"><path fill="#5e17eb" d="M 192.449219 172.375 C 191.910156 171.664062 191.382812 170.929688 190.882812 170.1875 C 190.882812 170.183594 190.878906 170.183594 190.878906 170.183594 C 190.382812 169.449219 189.894531 168.683594 189.429688 167.910156 C 188.960938 167.136719 188.507812 166.339844 188.078125 165.535156 C 187.644531 164.730469 187.226562 163.898438 186.832031 163.066406 C 186.4375 162.230469 186.058594 161.371094 185.699219 160.507812 C 185.335938 159.621094 184.988281 158.714844 184.664062 157.808594 C 184.339844 156.898438 184.035156 155.964844 183.753906 155.03125 C 183.453125 154.019531 183.171875 152.988281 182.921875 151.957031 C 182.667969 150.921875 182.441406 149.859375 182.242188 148.804688 C 182.242188 148.804688 182.242188 148.800781 182.242188 148.800781 C 181.890625 146.929688 181.625 145.003906 181.445312 143.089844 C 181.265625 141.140625 181.171875 139.152344 181.171875 137.179688 C 181.171875 135.488281 181.570312 133.859375 182.320312 132.460938 C 183.027344 131.144531 184.003906 130.109375 185.148438 129.472656 C 185.554688 129.242188 185.984375 129.066406 186.417969 128.949219 C 186.988281 128.796875 187.585938 128.742188 188.167969 128.789062 C 188.300781 128.800781 188.4375 128.816406 188.570312 128.835938 C 189.082031 128.917969 189.589844 129.078125 190.074219 129.3125 C 190.5625 129.550781 191.027344 129.859375 191.460938 130.238281 C 192.324219 130.992188 193.042969 132.003906 193.542969 133.160156 C 194.074219 134.386719 194.351562 135.773438 194.355469 137.175781 C 194.355469 137.175781 194.351562 137.179688 194.351562 137.179688 C 194.351562 137.195312 194.355469 137.207031 194.355469 137.21875 C 194.355469 137.242188 194.359375 137.261719 194.359375 137.285156 C 194.359375 137.292969 194.359375 137.300781 194.363281 137.308594 C 194.429688 137.929688 195 138.417969 195.691406 138.417969 C 196.433594 138.417969 197.03125 137.863281 197.03125 137.183594 C 197.03125 137.183594 197.03125 137.179688 197.03125 137.179688 C 197.03125 137.179688 197.03125 137.175781 197.03125 137.175781 C 197.03125 135.441406 196.695312 133.785156 196.03125 132.25 C 195.390625 130.761719 194.445312 129.445312 193.304688 128.449219 C 192.691406 127.917969 192.027344 127.472656 191.320312 127.132812 C 190.585938 126.773438 189.8125 126.53125 189.023438 126.40625 C 189.023438 126.40625 189.023438 126.40625 189.019531 126.40625 C 188.816406 126.375 188.605469 126.347656 188.398438 126.332031 C 187.488281 126.257812 186.554688 126.34375 185.667969 126.585938 C 185.007812 126.761719 184.367188 127.023438 183.757812 127.363281 C 183.757812 127.363281 183.753906 127.367188 183.753906 127.367188 C 182.179688 128.246094 180.855469 129.628906 179.921875 131.367188 C 178.988281 133.101562 178.492188 135.113281 178.492188 137.179688 C 178.492188 139.222656 178.589844 141.28125 178.777344 143.300781 C 178.960938 145.285156 179.238281 147.277344 179.605469 149.222656 C 179.808594 150.316406 180.046875 151.417969 180.308594 152.496094 C 180.566406 153.566406 180.859375 154.640625 181.171875 155.6875 C 181.464844 156.65625 181.78125 157.628906 182.121094 158.578125 C 182.453125 159.519531 182.816406 160.464844 183.199219 161.386719 C 183.570312 162.28125 183.964844 163.179688 184.378906 164.050781 C 184.789062 164.917969 185.226562 165.785156 185.675781 166.628906 C 186.125 167.464844 186.601562 168.300781 187.085938 169.109375 C 187.574219 169.917969 188.085938 170.714844 188.605469 171.488281 C 188.605469 171.488281 188.609375 171.488281 188.609375 171.488281 C 189.136719 172.269531 189.6875 173.039062 190.25 173.785156 C 190.8125 174.527344 191.402344 175.261719 191.996094 175.964844 C 192.261719 176.277344 192.65625 176.441406 193.054688 176.441406 C 193.34375 176.441406 193.632812 176.355469 193.878906 176.179688 C 194.460938 175.761719 194.566406 174.988281 194.109375 174.449219 C 193.542969 173.78125 192.984375 173.082031 192.449219 172.375 " fill-opacity="1" fill-rule="nonzero"/></g><path fill="#5e17eb" d="M 190.113281 146.53125 C 189.972656 145.773438 189.847656 144.996094 189.742188 144.226562 C 189.632812 143.449219 189.542969 142.65625 189.472656 141.875 C 189.402344 141.101562 189.347656 140.316406 189.3125 139.546875 C 189.277344 138.761719 189.261719 137.964844 189.261719 137.179688 C 189.261719 136.5 188.660156 135.945312 187.921875 135.945312 C 187.183594 135.945312 186.582031 136.5 186.582031 137.179688 C 186.582031 138 186.601562 138.828125 186.640625 139.648438 C 186.675781 140.453125 186.730469 141.273438 186.804688 142.082031 C 186.878906 142.898438 186.972656 143.722656 187.085938 144.535156 C 187.195312 145.34375 187.328125 146.152344 187.476562 146.949219 C 187.585938 147.546875 188.152344 147.972656 188.792969 147.972656 C 188.867188 147.972656 188.945312 147.96875 189.019531 147.957031 C 189.75 147.839844 190.238281 147.203125 190.113281 146.53125 " fill-opacity="1" fill-rule="nonzero"/><path fill="#5e17eb" d="M 201.332031 169.15625 C 200.800781 168.605469 200.277344 168.023438 199.777344 167.433594 C 199.285156 166.851562 198.800781 166.246094 198.339844 165.636719 C 197.878906 165.023438 197.425781 164.386719 196.996094 163.738281 C 196.570312 163.105469 196.160156 162.449219 195.769531 161.789062 C 195.375 161.128906 194.996094 160.441406 194.632812 159.75 C 194.28125 159.074219 193.9375 158.375 193.617188 157.671875 C 193.292969 156.964844 192.984375 156.242188 192.695312 155.515625 C 192.414062 154.804688 192.144531 154.070312 191.894531 153.339844 C 191.640625 152.601562 191.40625 151.84375 191.191406 151.09375 C 191 150.4375 190.269531 150.042969 189.554688 150.21875 C 188.839844 150.390625 188.410156 151.066406 188.601562 151.722656 C 188.828125 152.511719 189.074219 153.300781 189.339844 154.078125 C 189.601562 154.847656 189.882812 155.617188 190.179688 156.363281 C 190.484375 157.125 190.808594 157.886719 191.148438 158.628906 C 191.488281 159.367188 191.847656 160.105469 192.21875 160.816406 C 192.21875 160.816406 192.21875 160.820312 192.21875 160.820312 C 192.601562 161.546875 193.003906 162.269531 193.417969 162.96875 C 193.828125 163.667969 194.265625 164.363281 194.714844 165.03125 C 195.171875 165.71875 195.652344 166.394531 196.140625 167.042969 C 196.628906 167.691406 197.140625 168.332031 197.664062 168.949219 C 198.199219 169.582031 198.757812 170.199219 199.324219 170.789062 C 199.890625 171.382812 200.480469 171.957031 201.074219 172.507812 C 201.335938 172.746094 201.679688 172.867188 202.023438 172.867188 C 202.367188 172.867188 202.707031 172.746094 202.96875 172.507812 C 203.492188 172.023438 203.492188 171.246094 202.96875 170.761719 C 202.414062 170.25 201.863281 169.710938 201.332031 169.15625 " fill-opacity="1" fill-rule="nonzero"/><path fill="#5e17eb" d="M 206.5 168.152344 C 205.949219 167.695312 205.402344 167.207031 204.871094 166.703125 C 204.34375 166.203125 203.824219 165.671875 203.324219 165.128906 C 202.835938 164.597656 202.355469 164.042969 201.898438 163.472656 C 201.4375 162.90625 200.988281 162.3125 200.558594 161.707031 C 200.136719 161.117188 199.726562 160.5 199.335938 159.875 C 198.949219 159.253906 198.570312 158.605469 198.210938 157.949219 C 197.855469 157.300781 197.515625 156.632812 197.195312 155.960938 C 196.871094 155.285156 196.566406 154.585938 196.28125 153.890625 C 195.992188 153.191406 195.722656 152.472656 195.476562 151.753906 C 195.226562 151.03125 194.992188 150.289062 194.777344 149.550781 C 194.777344 149.546875 194.777344 149.546875 194.777344 149.546875 C 194.558594 148.78125 194.359375 148 194.179688 147.21875 C 194 146.429688 193.84375 145.625 193.707031 144.824219 C 193.496094 143.585938 193.335938 142.320312 193.230469 141.0625 C 193.121094 139.78125 193.066406 138.476562 193.066406 137.175781 C 193.066406 135.71875 192.609375 134.316406 191.789062 133.222656 C 190.902344 132.046875 189.664062 131.3125 188.304688 131.160156 C 188.214844 131.148438 188.125 131.140625 188.035156 131.136719 C 187.945312 131.128906 187.855469 131.125 187.761719 131.125 C 186.296875 131.125 184.886719 131.820312 183.890625 133.027344 C 182.96875 134.152344 182.460938 135.625 182.460938 137.179688 C 182.460938 138.6875 182.515625 140.207031 182.628906 141.703125 C 182.738281 143.179688 182.90625 144.660156 183.125 146.113281 C 183.269531 147.050781 183.433594 147.996094 183.621094 148.921875 C 183.804688 149.839844 184.015625 150.765625 184.246094 151.671875 C 184.46875 152.546875 184.710938 153.425781 184.976562 154.285156 C 185.234375 155.136719 185.519531 155.996094 185.820312 156.832031 C 186.117188 157.664062 186.441406 158.5 186.78125 159.316406 C 187.117188 160.125 187.476562 160.933594 187.851562 161.722656 C 188.070312 162.1875 188.5625 162.460938 189.078125 162.460938 C 189.257812 162.460938 189.4375 162.429688 189.613281 162.359375 C 190.292969 162.085938 190.601562 161.359375 190.304688 160.734375 C 189.949219 159.984375 189.605469 159.207031 189.28125 158.433594 C 188.957031 157.652344 188.648438 156.855469 188.363281 156.058594 C 188.074219 155.257812 187.800781 154.433594 187.554688 153.617188 C 187.300781 152.792969 187.066406 151.949219 186.855469 151.109375 C 186.632812 150.242188 186.429688 149.351562 186.253906 148.472656 C 186.074219 147.582031 185.914062 146.671875 185.777344 145.773438 C 185.566406 144.378906 185.40625 142.949219 185.300781 141.53125 C 185.191406 140.09375 185.136719 138.628906 185.136719 137.179688 C 185.136719 136.175781 185.460938 135.203125 186.027344 134.515625 C 186.308594 134.171875 186.914062 133.59375 187.761719 133.59375 C 187.796875 133.59375 187.832031 133.59375 187.867188 133.597656 C 187.902344 133.597656 187.9375 133.601562 187.972656 133.605469 C 188.566406 133.671875 189.140625 134.035156 189.585938 134.628906 C 190.101562 135.3125 190.386719 136.21875 190.390625 137.175781 C 190.390625 137.179688 190.390625 137.179688 190.390625 137.179688 C 190.390625 137.183594 190.390625 137.183594 190.390625 137.183594 C 190.390625 138.542969 190.445312 139.910156 190.558594 141.253906 C 190.671875 142.574219 190.839844 143.90625 191.058594 145.207031 C 191.203125 146.046875 191.371094 146.894531 191.558594 147.722656 C 191.746094 148.546875 191.957031 149.371094 192.1875 150.175781 C 192.414062 150.960938 192.660156 151.742188 192.921875 152.503906 C 193.183594 153.261719 193.472656 154.019531 193.773438 154.757812 C 194.074219 155.496094 194.402344 156.234375 194.742188 156.949219 C 195.078125 157.660156 195.441406 158.371094 195.816406 159.058594 C 196.199219 159.753906 196.601562 160.441406 197.015625 161.105469 C 197.429688 161.769531 197.871094 162.425781 198.320312 163.058594 C 198.777344 163.703125 199.257812 164.339844 199.75 164.949219 C 200.242188 165.554688 200.757812 166.152344 201.28125 166.722656 C 201.820312 167.308594 202.378906 167.878906 202.949219 168.417969 C 203.519531 168.960938 204.109375 169.488281 204.710938 169.984375 C 204.964844 170.195312 205.285156 170.300781 205.605469 170.300781 C 205.96875 170.300781 206.335938 170.164062 206.601562 169.890625 C 207.09375 169.386719 207.050781 168.605469 206.5 168.152344 " fill-opacity="1" fill-rule="nonzero"/><path fill="#5e17eb" d="M 209.75 164.96875 C 209.203125 164.558594 208.65625 164.117188 208.132812 163.65625 C 207.609375 163.195312 207.09375 162.707031 206.597656 162.203125 C 206.113281 161.703125 205.632812 161.179688 205.179688 160.640625 C 204.722656 160.101562 204.277344 159.539062 203.851562 158.960938 C 203.429688 158.386719 203.019531 157.785156 202.628906 157.171875 C 202.242188 156.5625 201.867188 155.925781 201.511719 155.28125 C 201.511719 155.277344 201.511719 155.277344 201.511719 155.277344 C 201.152344 154.621094 200.8125 153.945312 200.492188 153.257812 C 200.171875 152.570312 199.871094 151.859375 199.59375 151.144531 C 199.292969 150.371094 199.015625 149.578125 198.769531 148.785156 C 198.519531 147.980469 198.292969 147.15625 198.097656 146.332031 C 197.9375 145.667969 197.222656 145.25 196.5 145.394531 C 195.777344 145.539062 195.320312 146.199219 195.480469 146.863281 C 195.6875 147.734375 195.929688 148.609375 196.195312 149.464844 C 196.457031 150.308594 196.75 151.152344 197.070312 151.972656 C 197.367188 152.734375 197.691406 153.496094 198.03125 154.230469 C 198.371094 154.960938 198.734375 155.683594 199.121094 156.386719 C 199.121094 156.386719 199.121094 156.386719 199.121094 156.390625 C 199.5 157.082031 199.902344 157.765625 200.316406 158.417969 C 200.738281 159.078125 201.179688 159.722656 201.632812 160.339844 C 201.632812 160.339844 201.632812 160.339844 201.632812 160.34375 C 202.089844 160.964844 202.574219 161.578125 203.066406 162.160156 C 203.5625 162.742188 204.082031 163.3125 204.609375 163.851562 C 205.148438 164.402344 205.714844 164.9375 206.285156 165.441406 C 206.859375 165.945312 207.457031 166.429688 208.0625 166.882812 C 208.308594 167.070312 208.609375 167.160156 208.90625 167.160156 C 209.292969 167.160156 209.679688 167.003906 209.945312 166.703125 C 210.410156 166.175781 210.324219 165.398438 209.75 164.96875 " fill-opacity="1" fill-rule="nonzero"/><path fill="#5e17eb" d="M 212.570312 161.394531 C 212.023438 161.019531 211.484375 160.613281 210.964844 160.183594 C 210.445312 159.753906 209.9375 159.292969 209.445312 158.808594 C 208.960938 158.328125 208.484375 157.816406 208.03125 157.289062 C 207.578125 156.757812 207.136719 156.199219 206.71875 155.625 C 206.289062 155.035156 205.878906 154.417969 205.492188 153.785156 C 205.105469 153.148438 204.734375 152.484375 204.394531 151.8125 C 204.019531 151.070312 203.667969 150.296875 203.351562 149.519531 C 203.03125 148.730469 202.738281 147.914062 202.484375 147.097656 C 202.484375 147.09375 202.484375 147.09375 202.484375 147.09375 C 202 145.542969 201.628906 143.929688 201.378906 142.296875 C 201.125 140.621094 200.996094 138.898438 200.996094 137.179688 C 200.996094 135.304688 200.722656 133.472656 200.179688 131.730469 C 199.65625 130.039062 198.890625 128.476562 197.914062 127.09375 C 197.910156 127.089844 197.910156 127.089844 197.910156 127.089844 C 197.40625 126.375 196.84375 125.710938 196.238281 125.113281 C 195.625 124.507812 194.964844 123.964844 194.269531 123.5 C 193.648438 123.085938 192.996094 122.730469 192.324219 122.4375 C 191.640625 122.140625 190.925781 121.910156 190.207031 121.753906 C 190.203125 121.75 190.203125 121.75 190.199219 121.75 C 189.804688 121.664062 189.402344 121.597656 189 121.554688 C 188.164062 121.460938 187.308594 121.464844 186.476562 121.558594 C 186.058594 121.605469 185.636719 121.679688 185.226562 121.773438 C 185.226562 121.773438 185.222656 121.773438 185.222656 121.773438 C 184.273438 121.992188 183.339844 122.335938 182.453125 122.792969 C 181.59375 123.238281 180.773438 123.792969 180.011719 124.445312 C 179.46875 124.910156 179.441406 125.6875 179.941406 126.1875 C 180.207031 126.449219 180.566406 126.582031 180.925781 126.582031 C 181.25 126.582031 181.578125 126.472656 181.835938 126.25 C 182.441406 125.730469 183.089844 125.292969 183.765625 124.941406 C 184.445312 124.59375 185.152344 124.332031 185.871094 124.167969 C 186.179688 124.097656 186.496094 124.042969 186.808594 124.007812 C 187.425781 123.9375 188.0625 123.933594 188.683594 124.003906 C 188.984375 124.035156 189.285156 124.085938 189.582031 124.148438 C 189.582031 124.148438 189.582031 124.148438 189.582031 124.152344 C 190.125 124.269531 190.664062 124.445312 191.183594 124.667969 C 191.703125 124.894531 192.210938 125.171875 192.695312 125.496094 C 193.25 125.867188 193.785156 126.304688 194.28125 126.792969 C 194.777344 127.285156 195.246094 127.839844 195.667969 128.433594 C 196.5 129.617188 197.152344 130.953125 197.605469 132.410156 C 198.078125 133.929688 198.320312 135.535156 198.320312 137.179688 C 198.320312 139.011719 198.457031 140.851562 198.726562 142.636719 C 198.992188 144.382812 199.390625 146.113281 199.910156 147.773438 C 199.910156 147.773438 199.910156 147.773438 199.910156 147.777344 C 200.183594 148.65625 200.496094 149.535156 200.839844 150.378906 C 201.183594 151.222656 201.5625 152.054688 201.964844 152.855469 C 202.335938 153.582031 202.734375 154.300781 203.15625 154.992188 C 203.578125 155.679688 204.027344 156.355469 204.492188 156.996094 C 204.949219 157.625 205.429688 158.234375 205.929688 158.816406 C 206.425781 159.398438 206.949219 159.960938 207.488281 160.492188 C 208.03125 161.027344 208.597656 161.539062 209.175781 162.015625 C 209.753906 162.496094 210.359375 162.953125 210.96875 163.371094 C 211.210938 163.539062 211.492188 163.617188 211.769531 163.617188 C 212.175781 163.617188 212.582031 163.445312 212.84375 163.121094 C 213.285156 162.574219 213.164062 161.800781 212.570312 161.394531 " fill-opacity="1" fill-rule="nonzero"/><path fill="#5e17eb" d="M 216.9375 153.304688 C 216.394531 152.964844 215.863281 152.578125 215.355469 152.152344 C 214.851562 151.730469 214.359375 151.261719 213.902344 150.761719 C 213.902344 150.761719 213.902344 150.761719 213.898438 150.761719 C 213.386719 150.203125 212.902344 149.59375 212.457031 148.957031 C 212.007812 148.308594 211.59375 147.621094 211.222656 146.902344 C 210.90625 146.289062 210.105469 146.027344 209.4375 146.320312 C 208.769531 146.613281 208.488281 147.347656 208.804688 147.964844 C 209.222656 148.773438 209.691406 149.554688 210.199219 150.285156 C 210.710938 151.015625 211.265625 151.714844 211.855469 152.355469 C 211.855469 152.355469 211.859375 152.355469 211.859375 152.355469 C 212.394531 152.9375 212.960938 153.480469 213.554688 153.976562 C 214.152344 154.476562 214.78125 154.9375 215.429688 155.34375 C 215.660156 155.488281 215.921875 155.558594 216.179688 155.558594 C 216.609375 155.558594 217.03125 155.367188 217.289062 155.019531 C 217.707031 154.457031 217.546875 153.6875 216.9375 153.304688 " fill-opacity="1" fill-rule="nonzero"/><g clip-path="url(#813ef9874e)"><path fill="#5e17eb" d="M 214.960938 157.492188 C 214.417969 157.140625 213.882812 156.753906 213.371094 156.339844 C 212.855469 155.925781 212.355469 155.472656 211.875 154.996094 C 211.382812 154.507812 210.90625 153.980469 210.457031 153.429688 C 210.007812 152.878906 209.574219 152.292969 209.171875 151.6875 C 208.722656 151.015625 208.300781 150.300781 207.917969 149.570312 C 207.53125 148.832031 207.175781 148.058594 206.863281 147.273438 C 206.246094 145.734375 205.773438 144.117188 205.457031 142.453125 C 205.128906 140.738281 204.960938 138.96875 204.960938 137.1875 L 204.960938 137.167969 C 204.960938 135.234375 204.734375 133.320312 204.292969 131.480469 C 203.859375 129.691406 203.226562 127.984375 202.40625 126.398438 C 202.40625 126.398438 202.40625 126.394531 202.40625 126.394531 C 201.988281 125.589844 201.515625 124.808594 201.007812 124.074219 C 200.5 123.34375 199.941406 122.648438 199.351562 122.007812 C 199.351562 122.003906 199.351562 122.003906 199.351562 122.003906 C 198.816406 121.425781 198.246094 120.878906 197.65625 120.382812 C 197.058594 119.882812 196.425781 119.421875 195.78125 119.019531 C 195.78125 119.015625 195.78125 119.015625 195.78125 119.015625 C 195.164062 118.632812 194.523438 118.285156 193.875 117.992188 C 193.210938 117.695312 192.527344 117.441406 191.839844 117.242188 C 191.183594 117.054688 190.507812 116.910156 189.839844 116.8125 C 189.15625 116.714844 188.457031 116.664062 187.761719 116.664062 C 187.636719 116.664062 187.511719 116.667969 187.390625 116.671875 C 187.265625 116.675781 187.140625 116.679688 187.019531 116.683594 C 186.132812 116.730469 185.246094 116.855469 184.382812 117.058594 C 183.539062 117.257812 182.703125 117.535156 181.898438 117.882812 C 181.894531 117.886719 181.894531 117.886719 181.894531 117.886719 C 180.878906 118.324219 179.890625 118.878906 178.960938 119.539062 C 178.050781 120.1875 177.183594 120.9375 176.390625 121.777344 C 174.597656 123.660156 173.175781 125.921875 172.171875 128.496094 C 171.136719 131.140625 170.597656 133.96875 170.566406 136.914062 L 170.566406 137.445312 C 170.574219 140.378906 170.75 143.332031 171.089844 146.214844 C 171.421875 149.050781 171.914062 151.882812 172.558594 154.628906 C 172.890625 156.039062 173.265625 157.457031 173.675781 158.839844 C 174.082031 160.207031 174.539062 161.578125 175.023438 162.917969 C 175.453125 164.089844 175.914062 165.265625 176.402344 166.410156 C 176.886719 167.546875 177.40625 168.683594 177.949219 169.78125 C 178.457031 170.820312 179 171.859375 179.5625 172.867188 C 180.121094 173.867188 180.714844 174.863281 181.320312 175.828125 C 181.566406 176.222656 182.015625 176.441406 182.480469 176.441406 C 182.707031 176.441406 182.9375 176.390625 183.148438 176.277344 C 183.789062 175.933594 184.007812 175.179688 183.636719 174.589844 C 183.054688 173.664062 182.484375 172.703125 181.945312 171.738281 C 181.40625 170.769531 180.878906 169.765625 180.386719 168.765625 C 179.867188 167.703125 179.363281 166.605469 178.894531 165.507812 C 178.425781 164.402344 177.976562 163.269531 177.5625 162.132812 C 177.09375 160.839844 176.652344 159.511719 176.257812 158.1875 C 175.859375 156.847656 175.496094 155.476562 175.175781 154.109375 C 174.550781 151.445312 174.074219 148.703125 173.75 145.953125 C 173.425781 143.148438 173.253906 140.28125 173.242188 137.433594 L 173.242188 136.9375 C 173.273438 134.273438 173.757812 131.714844 174.691406 129.332031 C 175.570312 127.078125 176.855469 125.027344 178.402344 123.402344 C 179.085938 122.683594 179.824219 122.042969 180.597656 121.492188 C 181.371094 120.941406 182.191406 120.480469 183.03125 120.117188 C 183.6875 119.835938 184.367188 119.609375 185.050781 119.449219 C 185.746094 119.285156 186.457031 119.183594 187.164062 119.148438 C 187.265625 119.140625 187.363281 119.136719 187.464844 119.136719 C 188.117188 119.117188 188.78125 119.15625 189.429688 119.25 C 189.96875 119.328125 190.507812 119.445312 191.039062 119.597656 C 191.597656 119.757812 192.15625 119.964844 192.695312 120.207031 C 193.230469 120.449219 193.761719 120.734375 194.273438 121.054688 C 194.816406 121.394531 195.347656 121.78125 195.851562 122.207031 C 196.359375 122.632812 196.847656 123.101562 197.308594 123.597656 C 197.308594 123.601562 197.308594 123.601562 197.308594 123.601562 C 197.820312 124.15625 198.308594 124.765625 198.753906 125.40625 C 199.203125 126.050781 199.617188 126.742188 199.988281 127.457031 C 200.722656 128.875 201.289062 130.410156 201.675781 132.015625 C 202.078125 133.679688 202.28125 135.414062 202.285156 137.164062 C 202.28125 137.171875 202.28125 137.175781 202.28125 137.179688 C 202.28125 137.1875 202.28125 137.191406 202.285156 137.199219 C 202.285156 137.199219 202.285156 137.199219 202.285156 137.203125 C 202.285156 139.117188 202.464844 141.03125 202.820312 142.882812 C 203.164062 144.6875 203.679688 146.449219 204.347656 148.125 C 204.691406 148.984375 205.082031 149.832031 205.503906 150.640625 C 205.925781 151.445312 206.390625 152.234375 206.886719 152.976562 C 206.886719 152.976562 206.886719 152.976562 206.890625 152.976562 C 207.335938 153.648438 207.816406 154.300781 208.316406 154.914062 C 208.820312 155.53125 209.355469 156.121094 209.910156 156.671875 C 210.449219 157.210938 211.019531 157.722656 211.601562 158.191406 C 212.191406 158.667969 212.804688 159.113281 213.429688 159.511719 C 213.664062 159.664062 213.929688 159.734375 214.195312 159.734375 C 214.617188 159.734375 215.035156 159.550781 215.292969 159.207031 C 215.71875 158.648438 215.566406 157.882812 214.960938 157.492188 " fill-opacity="1" fill-rule="nonzero"/></g><path fill="#5e17eb" d="M 218.511719 148.863281 C 217.957031 148.492188 217.425781 148.058594 216.929688 147.566406 C 216.429688 147.074219 215.964844 146.523438 215.542969 145.925781 C 214.707031 144.746094 214.054688 143.40625 213.601562 141.949219 C 213.128906 140.429688 212.890625 138.824219 212.890625 137.179688 C 212.890625 135.347656 212.753906 133.511719 212.480469 131.722656 C 212.214844 129.976562 211.820312 128.246094 211.300781 126.585938 C 211.023438 125.703125 210.710938 124.828125 210.367188 123.980469 C 210.027344 123.140625 209.648438 122.308594 209.242188 121.507812 C 208.929688 120.890625 208.132812 120.621094 207.464844 120.910156 C 206.792969 121.199219 206.503906 121.933594 206.816406 122.550781 C 207.191406 123.292969 207.542969 124.0625 207.859375 124.84375 C 208.179688 125.628906 208.46875 126.445312 208.726562 127.265625 C 209.210938 128.816406 209.582031 130.429688 209.828125 132.066406 C 210.082031 133.742188 210.210938 135.460938 210.210938 137.179688 C 210.210938 139.054688 210.488281 140.886719 211.027344 142.628906 C 211.554688 144.320312 212.316406 145.882812 213.296875 147.269531 C 213.804688 147.984375 214.367188 148.652344 214.96875 149.25 C 215.582031 149.855469 216.246094 150.394531 216.941406 150.859375 C 217.175781 151.019531 217.453125 151.09375 217.726562 151.09375 C 218.140625 151.09375 218.546875 150.917969 218.808594 150.585938 C 219.246094 150.035156 219.109375 149.261719 218.511719 148.863281 " fill-opacity="1" fill-rule="nonzero"/><g clip-path="url(#0492ab560d)"><path fill="#5e17eb" d="M 220.648438 133.109375 C 220.539062 131.785156 220.371094 130.457031 220.148438 129.15625 C 220.007812 128.3125 219.839844 127.464844 219.648438 126.636719 C 219.464844 125.816406 219.25 124.992188 219.019531 124.183594 C 218.832031 123.527344 218.101562 123.132812 217.386719 123.304688 C 216.667969 123.480469 216.242188 124.15625 216.429688 124.8125 C 216.648438 125.578125 216.851562 126.363281 217.027344 127.144531 C 217.207031 127.929688 217.367188 128.734375 217.503906 129.535156 C 217.714844 130.773438 217.875 132.039062 217.980469 133.300781 C 218.089844 134.578125 218.144531 135.886719 218.144531 137.179688 C 218.144531 137.859375 218.742188 138.414062 219.480469 138.414062 C 220.222656 138.414062 220.820312 137.859375 220.820312 137.179688 C 220.820312 135.820312 220.761719 134.453125 220.648438 133.109375 " fill-opacity="1" fill-rule="nonzero"/></g><g fill="#ffffff" fill-opacity="1"><g transform="translate(131.052249, 279.034172)"><g><path d="M 7.03125 -1.875 C 8.601562 -1.875 9.695312 -2.664062 10.3125 -4.25 L 12.578125 -3.390625 C 12.085938 -2.179688 11.367188 -1.285156 10.421875 -0.703125 C 9.484375 -0.117188 8.351562 0.171875 7.03125 0.171875 C 5.019531 0.171875 3.46875 -0.394531 2.375 -1.53125 C 1.289062 -2.664062 0.75 -4.25 0.75 -6.28125 C 0.75 -8.332031 1.273438 -9.90625 2.328125 -11 C 3.378906 -12.09375 4.910156 -12.640625 6.921875 -12.640625 C 8.378906 -12.640625 9.566406 -12.347656 10.484375 -11.765625 C 11.398438 -11.179688 12.046875 -10.316406 12.421875 -9.171875 L 10.125 -8.546875 C 9.925781 -9.171875 9.539062 -9.664062 8.96875 -10.03125 C 8.40625 -10.40625 7.738281 -10.59375 6.96875 -10.59375 C 5.789062 -10.59375 4.894531 -10.226562 4.28125 -9.5 C 3.675781 -8.769531 3.375 -7.695312 3.375 -6.28125 C 3.375 -4.851562 3.6875 -3.757812 4.3125 -3 C 4.9375 -2.25 5.84375 -1.875 7.03125 -1.875 Z M 7.03125 -1.875 "/></g></g></g><g fill="#ffffff" fill-opacity="1"><g transform="translate(145.956806, 279.034172)"><g><path d="M 7.34375 -5.109375 L 7.34375 0 L 4.75 0 L 4.75 -5.109375 L 0.3125 -12.453125 L 3.046875 -12.453125 L 6.03125 -7.1875 L 9.0625 -12.453125 L 11.78125 -12.453125 Z M 7.34375 -5.109375 "/></g></g></g><g fill="#ffffff" fill-opacity="1"><g transform="translate(159.862374, 279.034172)"><g><path d="M 12.25 -3.546875 C 12.25 -2.421875 11.820312 -1.546875 10.96875 -0.921875 C 10.125 -0.304688 8.953125 0 7.453125 0 L 1.21875 0 L 1.21875 -12.453125 L 6.921875 -12.453125 C 8.441406 -12.453125 9.59375 -12.1875 10.375 -11.65625 C 11.15625 -11.132812 11.546875 -10.359375 11.546875 -9.328125 C 11.546875 -8.617188 11.347656 -8.019531 10.953125 -7.53125 C 10.554688 -7.050781 9.957031 -6.722656 9.15625 -6.546875 C 10.164062 -6.429688 10.929688 -6.113281 11.453125 -5.59375 C 11.984375 -5.082031 12.25 -4.398438 12.25 -3.546875 Z M 8.90625 -8.96875 C 8.90625 -9.53125 8.726562 -9.925781 8.375 -10.15625 C 8.019531 -10.394531 7.492188 -10.515625 6.796875 -10.515625 L 3.8125 -10.515625 L 3.8125 -7.4375 L 6.8125 -7.4375 C 7.539062 -7.4375 8.070312 -7.5625 8.40625 -7.8125 C 8.738281 -8.070312 8.90625 -8.457031 8.90625 -8.96875 Z M 9.640625 -3.765625 C 9.640625 -4.929688 8.800781 -5.515625 7.125 -5.515625 L 3.8125 -5.515625 L 3.8125 -1.9375 L 7.21875 -1.9375 C 8.0625 -1.9375 8.675781 -2.085938 9.0625 -2.390625 C 9.445312 -2.691406 9.640625 -3.148438 9.640625 -3.765625 Z M 9.640625 -3.765625 "/></g></g></g><g fill="#ffffff" fill-opacity="1"><g transform="translate(174.766932, 279.034172)"><g><path d="M 1.21875 0 L 1.21875 -12.453125 L 11.015625 -12.453125 L 11.015625 -10.4375 L 3.8125 -10.4375 L 3.8125 -7.3125 L 10.46875 -7.3125 L 10.46875 -5.296875 L 3.8125 -5.296875 L 3.8125 -2.015625 L 11.375 -2.015625 L 11.375 0 Z M 1.21875 0 "/></g></g></g><g fill="#ffffff" fill-opacity="1"><g transform="translate(188.672498, 279.034172)"><g><path d="M 9.765625 0 L 6.875 -4.734375 L 3.8125 -4.734375 L 3.8125 0 L 1.21875 0 L 1.21875 -12.453125 L 7.4375 -12.453125 C 8.925781 -12.453125 10.070312 -12.132812 10.875 -11.5 C 11.6875 -10.863281 12.09375 -9.945312 12.09375 -8.75 C 12.09375 -7.875 11.84375 -7.117188 11.34375 -6.484375 C 10.851562 -5.847656 10.1875 -5.429688 9.34375 -5.234375 L 12.703125 0 Z M 9.46875 -8.640625 C 9.46875 -9.835938 8.695312 -10.4375 7.15625 -10.4375 L 3.8125 -10.4375 L 3.8125 -6.75 L 7.234375 -6.75 C 7.960938 -6.75 8.515625 -6.914062 8.890625 -7.25 C 9.273438 -7.582031 9.46875 -8.046875 9.46875 -8.640625 Z M 9.46875 -8.640625 "/></g></g></g><g fill="#ffffff" fill-opacity="1"><g transform="translate(203.577054, 279.034172)"><g><path d="M 11.375 -3.59375 C 11.375 -2.375 10.921875 -1.441406 10.015625 -0.796875 C 9.109375 -0.148438 7.78125 0.171875 6.03125 0.171875 C 4.4375 0.171875 3.179688 -0.109375 2.265625 -0.671875 C 1.359375 -1.234375 0.773438 -2.09375 0.515625 -3.25 L 3.046875 -3.65625 C 3.210938 -3 3.539062 -2.519531 4.03125 -2.21875 C 4.53125 -1.925781 5.21875 -1.78125 6.09375 -1.78125 C 7.914062 -1.78125 8.828125 -2.332031 8.828125 -3.4375 C 8.828125 -3.789062 8.722656 -4.082031 8.515625 -4.3125 C 8.304688 -4.539062 8.007812 -4.734375 7.625 -4.890625 C 7.25 -5.046875 6.523438 -5.234375 5.453125 -5.453125 C 4.515625 -5.671875 3.863281 -5.84375 3.5 -5.96875 C 3.132812 -6.101562 2.800781 -6.257812 2.5 -6.4375 C 2.207031 -6.625 1.957031 -6.84375 1.75 -7.09375 C 1.550781 -7.34375 1.394531 -7.640625 1.28125 -7.984375 C 1.164062 -8.328125 1.109375 -8.71875 1.109375 -9.15625 C 1.109375 -10.28125 1.53125 -11.140625 2.375 -11.734375 C 3.21875 -12.335938 4.445312 -12.640625 6.0625 -12.640625 C 7.601562 -12.640625 8.757812 -12.394531 9.53125 -11.90625 C 10.3125 -11.425781 10.816406 -10.628906 11.046875 -9.515625 L 8.515625 -9.171875 C 8.390625 -9.710938 8.125 -10.117188 7.71875 -10.390625 C 7.320312 -10.660156 6.753906 -10.796875 6.015625 -10.796875 C 4.429688 -10.796875 3.640625 -10.300781 3.640625 -9.3125 C 3.640625 -8.988281 3.722656 -8.722656 3.890625 -8.515625 C 4.054688 -8.304688 4.304688 -8.128906 4.640625 -7.984375 C 4.972656 -7.835938 5.644531 -7.660156 6.65625 -7.453125 C 7.84375 -7.191406 8.691406 -6.953125 9.203125 -6.734375 C 9.722656 -6.523438 10.132812 -6.273438 10.4375 -5.984375 C 10.738281 -5.703125 10.96875 -5.363281 11.125 -4.96875 C 11.289062 -4.570312 11.375 -4.113281 11.375 -3.59375 Z M 11.375 -3.59375 "/></g></g></g><g fill="#ffffff" fill-opacity="1"><g transform="translate(217.48262, 279.034172)"><g><path d="M 1.21875 0 L 1.21875 -12.453125 L 11.015625 -12.453125 L 11.015625 -10.4375 L 3.8125 -10.4375 L 3.8125 -7.3125 L 10.46875 -7.3125 L 10.46875 -5.296875 L 3.8125 -5.296875 L 3.8125 -2.015625 L 11.375 -2.015625 L 11.375 0 Z M 1.21875 0 "/></g></g></g><g fill="#ffffff" fill-opacity="1"><g transform="translate(231.388192, 279.034172)"><g><path d="M 7.03125 -1.875 C 8.601562 -1.875 9.695312 -2.664062 10.3125 -4.25 L 12.578125 -3.390625 C 12.085938 -2.179688 11.367188 -1.285156 10.421875 -0.703125 C 9.484375 -0.117188 8.351562 0.171875 7.03125 0.171875 C 5.019531 0.171875 3.46875 -0.394531 2.375 -1.53125 C 1.289062 -2.664062 0.75 -4.25 0.75 -6.28125 C 0.75 -8.332031 1.273438 -9.90625 2.328125 -11 C 3.378906 -12.09375 4.910156 -12.640625 6.921875 -12.640625 C 8.378906 -12.640625 9.566406 -12.347656 10.484375 -11.765625 C 11.398438 -11.179688 12.046875 -10.316406 12.421875 -9.171875 L 10.125 -8.546875 C 9.925781 -9.171875 9.539062 -9.664062 8.96875 -10.03125 C 8.40625 -10.40625 7.738281 -10.59375 6.96875 -10.59375 C 5.789062 -10.59375 4.894531 -10.226562 4.28125 -9.5 C 3.675781 -8.769531 3.375 -7.695312 3.375 -6.28125 C 3.375 -4.851562 3.6875 -3.757812 4.3125 -3 C 4.9375 -2.25 5.84375 -1.875 7.03125 -1.875 Z M 7.03125 -1.875 "/></g></g></g><g fill="#ffffff" fill-opacity="1"><g transform="translate(118.67725, 303.78417)"><g><path d="M 7.03125 -1.875 C 8.601562 -1.875 9.695312 -2.664062 10.3125 -4.25 L 12.578125 -3.390625 C 12.085938 -2.179688 11.367188 -1.285156 10.421875 -0.703125 C 9.484375 -0.117188 8.351562 0.171875 7.03125 0.171875 C 5.019531 0.171875 3.46875 -0.394531 2.375 -1.53125 C 1.289062 -2.664062 0.75 -4.25 0.75 -6.28125 C 0.75 -8.332031 1.273438 -9.90625 2.328125 -11 C 3.378906 -12.09375 4.910156 -12.640625 6.921875 -12.640625 C 8.378906 -12.640625 9.566406 -12.347656 10.484375 -11.765625 C 11.398438 -11.179688 12.046875 -10.316406 12.421875 -9.171875 L 10.125 -8.546875 C 9.925781 -9.171875 9.539062 -9.664062 8.96875 -10.03125 C 8.40625 -10.40625 7.738281 -10.59375 6.96875 -10.59375 C 5.789062 -10.59375 4.894531 -10.226562 4.28125 -9.5 C 3.675781 -8.769531 3.375 -7.695312 3.375 -6.28125 C 3.375 -4.851562 3.6875 -3.757812 4.3125 -3 C 4.9375 -2.25 5.84375 -1.875 7.03125 -1.875 Z M 7.03125 -1.875 "/></g></g></g><g fill="#ffffff" fill-opacity="1"><g transform="translate(133.581807, 303.78417)"><g><path d="M 13.328125 -6.28125 C 13.328125 -4.988281 13.066406 -3.847656 12.546875 -2.859375 C 12.035156 -1.878906 11.300781 -1.128906 10.34375 -0.609375 C 9.394531 -0.0859375 8.285156 0.171875 7.015625 0.171875 C 5.054688 0.171875 3.519531 -0.398438 2.40625 -1.546875 C 1.300781 -2.703125 0.75 -4.28125 0.75 -6.28125 C 0.75 -8.28125 1.300781 -9.835938 2.40625 -10.953125 C 3.507812 -12.078125 5.050781 -12.640625 7.03125 -12.640625 C 9 -12.640625 10.539062 -12.070312 11.65625 -10.9375 C 12.769531 -9.8125 13.328125 -8.257812 13.328125 -6.28125 Z M 10.65625 -6.28125 C 10.65625 -7.625 10.335938 -8.675781 9.703125 -9.4375 C 9.066406 -10.207031 8.175781 -10.59375 7.03125 -10.59375 C 5.863281 -10.59375 4.960938 -10.210938 4.328125 -9.453125 C 3.691406 -8.703125 3.375 -7.644531 3.375 -6.28125 C 3.375 -4.914062 3.695312 -3.835938 4.34375 -3.046875 C 5 -2.265625 5.890625 -1.875 7.015625 -1.875 C 8.179688 -1.875 9.078125 -2.253906 9.703125 -3.015625 C 10.335938 -3.785156 10.65625 -4.875 10.65625 -6.28125 Z M 10.65625 -6.28125 "/></g></g></g><g fill="#ffffff" fill-opacity="1"><g transform="translate(149.494188, 303.78417)"><g><path d="M 11.5625 0 L 11.5625 -7.546875 C 11.5625 -7.722656 11.5625 -7.894531 11.5625 -8.0625 C 11.5625 -8.238281 11.585938 -8.972656 11.640625 -10.265625 C 11.222656 -8.679688 10.914062 -7.578125 10.71875 -6.953125 L 8.46875 0 L 6.609375 0 L 4.375 -6.953125 L 3.421875 -10.265625 C 3.492188 -8.898438 3.53125 -7.992188 3.53125 -7.546875 L 3.53125 0 L 1.21875 0 L 1.21875 -12.453125 L 4.703125 -12.453125 L 6.9375 -5.484375 L 7.125 -4.8125 L 7.546875 -3.140625 L 8.109375 -5.140625 L 10.40625 -12.453125 L 13.875 -12.453125 L 13.875 0 Z M 11.5625 0 "/></g></g></g><g fill="#ffffff" fill-opacity="1"><g transform="translate(166.405547, 303.78417)"><g><path d="M 11.453125 -8.515625 C 11.453125 -7.710938 11.269531 -6.992188 10.90625 -6.359375 C 10.539062 -5.734375 10.019531 -5.25 9.34375 -4.90625 C 8.664062 -4.5625 7.859375 -4.390625 6.921875 -4.390625 L 3.8125 -4.390625 L 3.8125 0 L 1.21875 0 L 1.21875 -12.453125 L 6.8125 -12.453125 C 8.300781 -12.453125 9.445312 -12.109375 10.25 -11.421875 C 11.050781 -10.742188 11.453125 -9.773438 11.453125 -8.515625 Z M 8.828125 -8.46875 C 8.828125 -9.78125 8.054688 -10.4375 6.515625 -10.4375 L 3.8125 -10.4375 L 3.8125 -6.390625 L 6.59375 -6.390625 C 7.3125 -6.390625 7.863281 -6.566406 8.25 -6.921875 C 8.632812 -7.285156 8.828125 -7.800781 8.828125 -8.46875 Z M 8.828125 -8.46875 "/></g></g></g><g fill="#ffffff" fill-opacity="1"><g transform="translate(180.311113, 303.78417)"><g><path d="M 1.21875 0 L 1.21875 -12.453125 L 3.8125 -12.453125 L 3.8125 -2.015625 L 10.5 -2.015625 L 10.5 0 Z M 1.21875 0 "/></g></g></g><g fill="#ffffff" fill-opacity="1"><g transform="translate(193.200021, 303.78417)"><g><path d="M 1.21875 0 L 1.21875 -12.453125 L 3.8125 -12.453125 L 3.8125 0 Z M 1.21875 0 "/></g></g></g><g fill="#ffffff" fill-opacity="1"><g transform="translate(200.059666, 303.78417)"><g><path d="M 10.015625 0 L 8.90625 -3.1875 L 4.171875 -3.1875 L 3.0625 0 L 0.453125 0 L 5 -12.453125 L 8.078125 -12.453125 L 12.59375 0 Z M 6.53125 -10.546875 L 6.484375 -10.34375 C 6.421875 -10.132812 6.347656 -9.894531 6.265625 -9.625 C 6.179688 -9.351562 5.675781 -7.859375 4.75 -5.140625 L 8.328125 -5.140625 L 7.09375 -8.734375 L 6.71875 -9.9375 Z M 6.53125 -10.546875 "/></g></g></g><g fill="#ffffff" fill-opacity="1"><g transform="translate(214.964227, 303.78417)"><g><path d="M 8.796875 0 L 3.375 -9.59375 C 3.476562 -8.664062 3.53125 -7.914062 3.53125 -7.34375 L 3.53125 0 L 1.21875 0 L 1.21875 -12.453125 L 4.1875 -12.453125 L 9.703125 -2.78125 C 9.597656 -3.675781 9.546875 -4.488281 9.546875 -5.21875 L 9.546875 -12.453125 L 11.859375 -12.453125 L 11.859375 0 Z M 8.796875 0 "/></g></g></g><g fill="#ffffff" fill-opacity="1"><g transform="translate(229.868782, 303.78417)"><g><path d="M 7.03125 -1.875 C 8.601562 -1.875 9.695312 -2.664062 10.3125 -4.25 L 12.578125 -3.390625 C 12.085938 -2.179688 11.367188 -1.285156 10.421875 -0.703125 C 9.484375 -0.117188 8.351562 0.171875 7.03125 0.171875 C 5.019531 0.171875 3.46875 -0.394531 2.375 -1.53125 C 1.289062 -2.664062 0.75 -4.25 0.75 -6.28125 C 0.75 -8.332031 1.273438 -9.90625 2.328125 -11 C 3.378906 -12.09375 4.910156 -12.640625 6.921875 -12.640625 C 8.378906 -12.640625 9.566406 -12.347656 10.484375 -11.765625 C 11.398438 -11.179688 12.046875 -10.316406 12.421875 -9.171875 L 10.125 -8.546875 C 9.925781 -9.171875 9.539062 -9.664062 8.96875 -10.03125 C 8.40625 -10.40625 7.738281 -10.59375 6.96875 -10.59375 C 5.789062 -10.59375 4.894531 -10.226562 4.28125 -9.5 C 3.675781 -8.769531 3.375 -7.695312 3.375 -6.28125 C 3.375 -4.851562 3.6875 -3.757812 4.3125 -3 C 4.9375 -2.25 5.84375 -1.875 7.03125 -1.875 Z M 7.03125 -1.875 "/></g></g></g><g fill="#ffffff" fill-opacity="1"><g transform="translate(244.773338, 303.78417)"><g><path d="M 1.21875 0 L 1.21875 -12.453125 L 11.015625 -12.453125 L 11.015625 -10.4375 L 3.8125 -10.4375 L 3.8125 -7.3125 L 10.46875 -7.3125 L 10.46875 -5.296875 L 3.8125 -5.296875 L 3.8125 -2.015625 L 11.375 -2.015625 L 11.375 0 Z M 1.21875 0 "/></g></g></g></svg>